# xmcd
#
# Track frame offsets: 
#        150
#        12740
#        29443
#        39021
#        50022
#        62235
#        72595
#        80200
#        93957
#        108992
#        121933
#        136308
#        142240
#        154072
#        162742
#
# Disc length: 2318 seconds
#
# Revision: 0
# Processed by: cddbd v1.5.2PL0 Copyright (c) Steve Scherf et al.
# Submitted via: ExactAudioCopy v0.95a5
#
DISCID=dd090c0f
DTITLE=The Reef Airs - Behind the Green Door
DYEAR=2016
DGENRE=Swing
TTITLE0=01-GREEN DOOR
TTITLE1=02-BEAT ME DADDY
TTITLE2=03-LOVESICK BLUES
TTITLE3=04-MACK THE KNIFE
TTITLE4=05-BLUE HEAVEN
TTITLE5=06-SITTING HERE ON TOP OF THE WORLD
TTITLE6=07-AINT SHE SWEET
TTITLE7=08-ALL OF ME
TTITLE8=09-WEST TEXAS HIGHWAY
TTITLE9=10-PARAPHERNALIA
TTITLE10=11-ALL OF ME
TTITLE11=12-PENCIL THIN MOUSTACHE
TTITLE12=13-LET ME GO HOME WHISKEY
TTITLE13=14-BIG RIVER
TTITLE14=15-I'M SATISFIED
EXTD=
EXTT0=
EXTT1=
EXTT2=
EXTT3=
EXTT4=
EXTT5=
EXTT6=
EXTT7=
EXTT8=
EXTT9=
EXTT10=
EXTT11=
EXTT12=
EXTT13=
EXTT14=
PLAYORDER=
